<svg width="40" height="40" viewBox="0 0 40 40" fill="none" xmlns="http://www.w3.org/2000/svg">
<path fill-rule="evenodd" clip-rule="evenodd" d="M20 39.5C30.7696 39.5 39.5 30.7696 39.5 20C39.5 9.23045 30.7696 0.5 20 0.5C9.23045 0.5 0.5 9.23045 0.5 20C0.5 30.7696 9.23045 39.5 20 39.5ZM20 40C31.0457 40 40 31.0457 40 20C40 8.9543 31.0457 0 20 0C8.9543 0 0 8.9543 0 20C0 31.0457 8.9543 40 20 40Z" fill="#383838"/>
<path fill-rule="evenodd" clip-rule="evenodd" d="M18.3428 12.9289L24.7068 19.2928C25.0973 19.6834 25.0973 20.3165 24.7068 20.7071L18.3428 27.071C17.9523 27.4615 17.3192 27.4615 16.9286 27.071C16.5381 26.6805 16.5381 26.0473 16.9286 25.6568L22.5855 19.9999L16.9286 14.3431C16.5381 13.9526 16.5381 13.3194 16.9286 12.9289C17.3192 12.5384 17.9523 12.5384 18.3428 12.9289Z" fill="#383838"/>
</svg>
