<svg width="40" height="40" viewBox="0 0 40 40" fill="none" xmlns="http://www.w3.org/2000/svg">
<path fill-rule="evenodd" clip-rule="evenodd" d="M20 0.5C9.23045 0.5 0.5 9.23045 0.5 20C0.5 30.7696 9.23045 39.5 20 39.5C30.7696 39.5 39.5 30.7696 39.5 20C39.5 9.23045 30.7696 0.5 20 0.5ZM20 0C8.95431 0 0 8.95431 0 20C0 31.0457 8.95431 40 20 40C31.0457 40 40 31.0457 40 20C40 8.95431 31.0457 0 20 0Z" fill="#383838"/>
<path fill-rule="evenodd" clip-rule="evenodd" d="M21.6572 27.0711L15.2932 20.7072C14.9027 20.3166 14.9027 19.6835 15.2932 19.2929L21.6572 12.929C22.0477 12.5385 22.6808 12.5385 23.0714 12.929C23.4619 13.3195 23.4619 13.9527 23.0714 14.3432L17.4145 20.0001L23.0714 25.6569C23.4619 26.0474 23.4619 26.6806 23.0714 27.0711C22.6808 27.4616 22.0477 27.4616 21.6572 27.0711Z" fill="#383838"/>
</svg>
