<svg width="47" height="47" viewBox="0 0 47 47" fill="none" xmlns="http://www.w3.org/2000/svg">
<g clip-path="url(#clip0_37_1471)">
<g clip-path="url(#clip1_37_1471)">
<path d="M46.6667 23.3333C46.6667 10.4467 36.22 0 23.3333 0C10.4467 0 0 10.4467 0 23.3333C0 36.22 10.4467 46.6667 23.3333 46.6667C36.22 46.6667 46.6667 36.22 46.6667 23.3333Z" fill="#021B79"/>
<path d="M23.0346 15.8702L16.5943 18.8306C16.3579 18.949 16.2102 19.1562 16.2102 19.4227V27.2382C16.2102 27.5046 16.3579 27.7118 16.5943 27.8303L23.0346 30.7907C23.1232 30.8203 23.2118 30.8499 23.3005 30.8499C23.3891 30.8499 23.4777 30.8203 23.5664 30.7907L30.0066 27.8303C30.243 27.7118 30.3907 27.5046 30.3907 27.2382V19.4227C30.3907 19.1562 30.243 18.949 30.0066 18.8306L23.5664 15.8702C23.3891 15.811 23.2118 15.811 23.0346 15.8702ZM23.3005 17.1728L28.2046 19.4227L23.3005 21.6726L18.3964 19.4227L23.3005 17.1728ZM17.5101 20.4293L22.6506 22.7976V29.1921L17.5101 26.8238V20.4293ZM23.9505 29.1921V22.7976L29.0908 20.4293V26.8238L23.9505 29.1921Z" fill="white"/>
<path d="M12.1923 19.6893C12.2809 19.7189 12.34 19.7189 12.4286 19.7189C12.6945 19.7189 12.9309 19.5709 13.0194 19.3044C14.4967 15.5151 17.8645 12.9099 21.8232 12.377V13.502C21.8232 13.6796 21.9118 13.8572 22.0891 13.946C22.1481 13.9757 22.2368 14.0053 22.3255 14.0053C22.414 14.0053 22.5322 13.9757 22.5914 13.9164L25.2797 12.0514C25.3979 11.9626 25.4864 11.8145 25.4864 11.6665C25.4864 11.5185 25.3979 11.3705 25.2797 11.2817L22.5914 9.41661C22.4435 9.32779 22.2368 9.29819 22.0891 9.387C21.9414 9.41661 21.8232 9.56462 21.8232 9.74225V11.0744C17.3327 11.6073 13.4922 14.5381 11.8082 18.8307C11.69 19.186 11.8674 19.5412 12.1923 19.6893Z" fill="white"/>
<path d="M19.2835 33.6328C15.5021 32.1526 12.9023 28.7777 12.3706 24.8108H13.4932C13.6705 24.8108 13.8477 24.722 13.9363 24.5443C14.025 24.3668 13.9954 24.1891 13.9068 24.041L12.0456 21.3471C11.957 21.2287 11.8093 21.1399 11.6615 21.1399C11.5138 21.1399 11.3661 21.2287 11.2775 21.3471L9.41631 24.041C9.32768 24.1891 9.29814 24.3963 9.38677 24.5443C9.4754 24.6924 9.56402 24.8108 9.74128 24.8108H11.0707C11.6025 29.3106 14.5271 33.1591 18.8109 34.8466C18.8995 34.8762 18.9586 34.8762 19.0473 34.8762C19.3132 34.8762 19.5494 34.7282 19.6381 34.4617C19.7858 34.1361 19.6381 33.7512 19.2835 33.6328Z" fill="white"/>
<path d="M34.4082 26.9718C34.0831 26.8534 33.6991 27.0014 33.581 27.327C32.1038 31.146 28.736 33.7512 24.7772 34.284V33.1591C24.7772 32.9814 24.6887 32.8038 24.5113 32.715C24.3636 32.6261 24.1569 32.6558 24.0091 32.7446L21.3207 34.6097C21.2026 34.6985 21.114 34.8465 21.114 34.9945C21.114 35.1425 21.2026 35.2906 21.3207 35.3794L24.0091 37.2444C24.0978 37.3037 24.1864 37.3333 24.275 37.3333C24.3636 37.3333 24.4228 37.3037 24.5113 37.274C24.659 37.1852 24.7772 37.0372 24.7772 36.83V35.4978C29.2677 34.965 33.1083 32.0341 34.7922 27.7415C34.9104 27.4751 34.7331 27.1198 34.4082 26.9718Z" fill="white"/>
<path d="M37.2753 22.1168C37.1867 21.9688 37.039 21.8503 36.8617 21.8503H35.5323C35.0005 17.3505 32.0758 13.5019 27.7922 11.8146C27.4671 11.6961 27.0832 11.8441 26.965 12.1698C26.8468 12.4954 26.9945 12.8803 27.3194 12.9987C31.1009 14.5085 33.7007 17.8833 34.2325 21.8503H33.1098C32.9326 21.8503 32.7553 21.9391 32.6667 22.1168C32.5781 22.2944 32.6076 22.4721 32.6962 22.62L34.5574 25.3141C34.6461 25.4325 34.7938 25.5213 34.9415 25.5213C35.0892 25.5213 35.2369 25.4325 35.3256 25.3141L37.1867 22.62C37.364 22.4721 37.364 22.2647 37.2753 22.1168Z" fill="white"/>
</g>
</g>
<defs>
<clipPath id="clip0_37_1471">
<rect width="46.6667" height="46.6667" fill="white"/>
</clipPath>
<clipPath id="clip1_37_1471">
<rect width="46.6667" height="46.6667" fill="white"/>
</clipPath>
</defs>
</svg>
