<svg width="48" height="47" viewBox="0 0 48 47" fill="none" xmlns="http://www.w3.org/2000/svg">
<g clip-path="url(#clip0_37_1501)">
<g clip-path="url(#clip1_37_1501)">
<g clip-path="url(#clip2_37_1501)">
<path d="M47.5002 23.3333C47.5002 10.4467 37.0535 0 24.1668 0C11.2802 0 0.833496 10.4467 0.833496 23.3333C0.833496 36.22 11.2802 46.6667 24.1668 46.6667C37.0535 46.6667 47.5002 36.22 47.5002 23.3333Z" fill="#021B79"/>
<path d="M28.8286 17.568H31.3971L27.9946 14.182V16.7361C27.9946 17.1936 28.3699 17.568 28.8286 17.568Z" fill="white"/>
<path d="M16.105 15.0139V31.6526C16.105 32.094 16.2808 32.5171 16.5936 32.8292C16.9062 33.1413 17.3306 33.3165 17.7728 33.3165H30.565C31.4823 33.3165 32.2329 32.5678 32.2329 31.6526V19.2318H28.8305C27.4545 19.2318 26.3288 18.1087 26.3288 16.736V13.35H17.7728C16.8472 13.35 16.105 14.0905 16.105 15.0139ZM18.565 27.9172C18.565 27.4596 18.9403 27.0854 19.3989 27.0854H28.9306C29.3892 27.0854 29.7644 27.4596 29.7644 27.9172C29.7644 28.3748 29.3892 28.7492 28.9306 28.7492H19.3989C18.9403 28.7492 18.565 28.3748 18.565 27.9172ZM18.565 23.4913C18.565 23.0338 18.9403 22.6594 19.3989 22.6594H28.9306C29.3892 22.6594 29.7644 23.0338 29.7644 23.4913C29.7644 23.9489 29.3892 24.3233 28.9306 24.3233H19.3989C18.9403 24.3233 18.565 23.9489 18.565 23.4913ZM18.565 18.7493C18.565 18.2833 18.9403 17.9174 19.3989 17.9174H23.285C23.752 17.9174 24.1189 18.2833 24.1189 18.7493C24.1189 19.2069 23.752 19.5813 23.285 19.5813H19.3989C18.9403 19.5813 18.565 19.2069 18.565 18.7493Z" fill="white"/>
</g>
</g>
</g>
<defs>
<clipPath id="clip0_37_1501">
<rect width="46.6667" height="46.6667" fill="white" transform="translate(0.833496)"/>
</clipPath>
<clipPath id="clip1_37_1501">
<rect width="46.6667" height="46.6667" fill="white" transform="translate(0.833496)"/>
</clipPath>
<clipPath id="clip2_37_1501">
<rect width="46.6667" height="46.6667" fill="white" transform="translate(0.833496)"/>
</clipPath>
</defs>
</svg>
