<svg width="48" height="47" viewBox="0 0 48 47" fill="none" xmlns="http://www.w3.org/2000/svg">
<g clip-path="url(#clip0_37_1508)">
<path d="M47.3332 23.3333C47.3332 10.4467 36.8865 0 23.9998 0C11.1132 0 0.666504 10.4467 0.666504 23.3333C0.666504 36.22 11.1132 46.6667 23.9998 46.6667C36.8865 46.6667 47.3332 36.22 47.3332 23.3333Z" fill="#021B79"/>
<path d="M28.5573 31.8403C27.3846 31.8403 26.4306 30.8863 26.4306 29.7136V21.7334C25.8709 21.3778 25.4102 20.8865 25.0915 20.3051C24.7728 19.7236 24.6063 19.071 24.6077 18.4078C24.6063 17.68 24.8069 16.9662 25.1871 16.3455C25.5673 15.725 26.1122 15.222 26.7611 14.8926C26.8539 14.8455 26.9571 14.8229 27.0611 14.827C27.165 14.8311 27.2661 14.8618 27.3548 14.9161C27.4435 14.9703 27.5169 15.0464 27.5678 15.1371C27.6187 15.2279 27.6457 15.33 27.6459 15.4341V18.0608L28.5573 18.4254L29.4688 18.0608V15.4341C29.469 15.33 29.4959 15.2279 29.5469 15.1371C29.5978 15.0464 29.6711 14.9703 29.7599 14.9161C29.8485 14.8618 29.9497 14.8311 30.0537 14.827C30.1575 14.8229 30.2608 14.8455 30.3535 14.8926C31.0025 15.2221 31.5474 15.7252 31.9275 16.3459C32.3078 16.9666 32.5083 17.6806 32.507 18.4084C32.5081 19.0715 32.3417 19.7241 32.023 20.3055C31.7042 20.887 31.2437 21.3783 30.6841 21.7341V29.7136C30.6841 30.8863 29.7301 31.8403 28.5573 31.8403ZM26.4306 16.6894C26.0435 17.1664 25.823 17.768 25.823 18.4078C25.823 19.4372 26.3947 20.3698 27.3153 20.8414C27.4149 20.8924 27.4984 20.9699 27.5567 21.0653C27.615 21.1607 27.6459 21.2704 27.6459 21.3822V29.7136C27.6459 30.216 28.0548 30.625 28.5573 30.625C29.0599 30.625 29.4688 30.216 29.4688 29.7136V21.3822C29.4688 21.2704 29.4996 21.1607 29.5579 21.0653C29.6163 20.9699 29.6998 20.8924 29.7993 20.8414C30.2487 20.6135 30.6261 20.2655 30.8896 19.836C31.1531 19.4065 31.2923 18.9123 31.2917 18.4084C31.2929 17.7828 31.0782 17.1759 30.6841 16.69V18.4723C30.6841 18.7208 30.5328 18.9438 30.3025 19.0367L28.7834 19.6444C28.6385 19.7027 28.4767 19.7027 28.3319 19.6444L26.8128 19.0367C26.7001 18.9915 26.6034 18.9136 26.5353 18.813C26.4671 18.7124 26.4307 18.5937 26.4306 18.4723V16.6894Z" fill="white"/>
<path d="M24.6524 31.8403H23.3479C23.0421 31.8391 22.7478 31.7233 22.5235 31.5155C22.2992 31.3078 22.1609 31.0233 22.1362 30.7186L22.0597 29.7251C21.6421 29.5984 21.2381 29.4307 20.8535 29.2244L20.0964 29.8727C19.8635 30.071 19.5649 30.1744 19.2593 30.1628C18.9538 30.1513 18.6638 30.0254 18.4466 29.8102L17.523 28.886C17.3079 28.6687 17.182 28.3787 17.1702 28.0731C17.1585 27.7675 17.2619 27.4687 17.4598 27.2357L18.1082 26.4791C17.902 26.0945 17.7343 25.6905 17.6075 25.2729L16.6146 25.197C16.3099 25.1725 16.0255 25.0344 15.8177 24.8101C15.61 24.5858 15.4941 24.2917 15.4929 23.9859V22.6807C15.4929 22.0494 15.9857 21.5172 16.6153 21.4691L17.6081 21.3932C17.7345 20.9757 17.9022 20.5722 18.1088 20.187L17.4598 19.4293C17.2618 19.1962 17.1584 18.8973 17.1703 18.5916C17.1822 18.2861 17.3083 17.9961 17.5236 17.779L18.446 16.8559C18.6632 16.6406 18.9533 16.5146 19.2589 16.5029C19.5645 16.4912 19.8634 16.5946 20.0964 16.7927L20.8535 17.4411C21.2381 17.2349 21.6421 17.0672 22.0597 16.9404L22.1362 15.9469C22.1612 15.6424 22.2994 15.3584 22.5236 15.1509C22.7479 14.9435 23.0417 14.8277 23.3472 14.8264H23.9999C24.1611 14.8264 24.3155 14.8904 24.4295 15.0044C24.5435 15.1184 24.6075 15.2729 24.6075 15.4341C24.6075 15.5952 24.5435 15.7497 24.4295 15.8637C24.3155 15.9777 24.1611 16.0417 23.9999 16.0417H23.3472L23.2379 17.4642C23.2279 17.5932 23.177 17.7155 23.0926 17.8136C23.0083 17.9116 22.8948 17.9801 22.7687 18.0092C22.1804 18.1448 21.6189 18.3778 21.1075 18.6989C20.9978 18.768 20.869 18.8 20.7398 18.7903C20.6106 18.7805 20.4879 18.7295 20.3899 18.6448L19.3053 17.7158L18.3829 18.6394L19.3119 19.7234C19.4851 19.9251 19.5064 20.2161 19.3654 20.441C19.0448 20.9526 18.8118 21.514 18.6757 22.1022C18.6467 22.2284 18.5781 22.342 18.4799 22.4264C18.3818 22.5108 18.2592 22.5616 18.1301 22.5714L16.7082 22.6807V23.9859L18.1301 24.0953C18.2591 24.1052 18.3817 24.1561 18.4798 24.2404C18.578 24.3248 18.6466 24.4383 18.6757 24.5644C18.8113 25.1528 19.0444 25.7143 19.3654 26.2257C19.4341 26.3354 19.4659 26.4642 19.4563 26.5933C19.4467 26.7223 19.3961 26.845 19.3119 26.9433L18.3829 28.0273L19.3059 28.951L20.3899 28.0219C20.488 27.9374 20.6107 27.8867 20.7398 27.8769C20.8689 27.8672 20.9977 27.899 21.1075 27.9678C21.6228 28.2898 22.1818 28.522 22.7687 28.6574C22.8948 28.6866 23.0083 28.7552 23.0926 28.8532C23.177 28.9513 23.2279 29.0736 23.2379 29.2026L23.3472 30.625H24.6518C24.6574 30.545 24.6788 30.4669 24.7146 30.3952C24.7505 30.3234 24.8002 30.2596 24.861 30.2072C24.9216 30.1548 24.9921 30.1148 25.0683 30.0898C25.1445 30.0647 25.2249 30.055 25.3049 30.0612C25.3848 30.0674 25.4628 30.0893 25.5342 30.1258C25.6056 30.1622 25.6692 30.2124 25.7211 30.2736C25.773 30.3346 25.8124 30.4055 25.8368 30.4818C25.8612 30.5582 25.8703 30.6387 25.8635 30.7186C25.8388 31.0233 25.7007 31.3076 25.4765 31.5153C25.2522 31.7231 24.9582 31.839 24.6524 31.8403Z" fill="white"/>
<path d="M19.7468 23.3334C19.7436 22.3271 20.0985 21.3525 20.7481 20.584C21.3978 19.8155 22.2997 19.3032 23.2924 19.1389C23.3712 19.1253 23.4518 19.1276 23.5297 19.1452C23.6075 19.163 23.6811 19.1961 23.7462 19.2425C23.8112 19.2888 23.8663 19.3477 23.9085 19.4155C23.9507 19.4834 23.979 19.5589 23.9919 19.6378C24.0184 19.7966 23.9808 19.9596 23.8872 20.0907C23.7936 20.2219 23.6519 20.3106 23.4929 20.3372C22.7842 20.455 22.1404 20.8211 21.6767 21.37C21.2131 21.9189 20.9598 22.6149 20.9621 23.3334C20.9621 25.4316 23.0464 26.8948 25.0133 26.199C25.1636 26.1513 25.3265 26.1637 25.4678 26.2339C25.609 26.3041 25.7175 26.4264 25.7702 26.5751C25.8228 26.7237 25.8157 26.887 25.7502 27.0305C25.6847 27.1739 25.566 27.2862 25.4192 27.3438C22.6526 28.3227 19.7468 26.2598 19.7468 23.3334Z" fill="white"/>
</g>
<defs>
<clipPath id="clip0_37_1508">
<rect width="46.6667" height="46.6667" fill="white" transform="translate(0.666504)"/>
</clipPath>
</defs>
</svg>
