<svg width="1200" height="550" viewBox="0 0 1200 550" fill="none" xmlns="http://www.w3.org/2000/svg">
<g clip-path="url(#clip0_37_1359)">
<mask id="mask0_37_1359" style="mask-type:luminance" maskUnits="userSpaceOnUse" x="0" y="-25" width="1200" height="600">
<path d="M1200 -25H0V575H1200V-25Z" fill="white"/>
</mask>
<g mask="url(#mask0_37_1359)">
<g opacity="0.5">
<path d="M1384.59 -227V-61.3375L1329.87 -116.058V-227H1328.87L1329.04 -226.829V-116.896L1274.32 -171.617V-227H1273.48V-171.617L1218.76 -116.896V-227H884.592V-171.617L829.87 -116.896V-227H828.866L774.316 -172.45V-227H773.482V-171.617L718.761 -116.896V-227H385V-59.9167H550.664L495.943 -5.1958H385V-4.1917L385.171 -4.3625H495.105L440.384 50.3583H385V51.1917H440.384L495.105 105.913H385V106.746H495.105L440.384 161.467H385V162.3H439.55L385 216.854V217.858H495.105L440.384 272.579H385V772.996H718.753V662.892L773.474 717.613V772.996H774.307V717.613L829.029 662.892V772.825L828.858 772.996H829.862V662.058L884.583 607.338V773H1218.75V717.617L1218.92 717.446L1218.75 717.275V662.896L1273.47 717.617V773H1274.31V718.45L1328.86 773H1329.86V662.896L1384.58 717.617V773H1385V272.583H1219.34L1274.06 217.863H1385V216.858L1384.83 217.029H1274.89L1329.61 162.308H1385V161.475H1329.61L1274.89 106.754H1385V105.921H1274.89L1329.61 51.2H1385V50.3667H1330.45L1385 -4.1833V-5.1875H1274.89L1329.61 -59.9083H1385V-227H1384.58H1384.59ZM1273.89 -170.854L1329.03 -115.717V-60.75H1218.75V-115.717L1273.89 -170.854ZM1329.87 -114.883L1384 -60.75H1329.87V-114.883ZM996.288 717.029L941.567 662.308H1051.5L1106.22 717.029H996.288ZM774.899 605.917L829.62 551.196H940.388L995.109 605.917H774.899ZM662.607 717.029H552.672L607.394 662.308H717.328L662.607 717.029ZM440.971 384.283L495.693 329.562V439.496L440.971 494.217V384.283ZM550.66 273.417L496.526 327.55V273.417H550.66ZM552.085 161.717V50.95L606.806 -3.7708V217.275L552.085 271.996V162.063L552.256 161.892L552.085 161.721V161.717ZM717.332 -116.304H607.398L552.676 -171.025H662.611L717.332 -116.304ZM940.734 -171.025H1050.67L995.947 -116.304H886.013L940.734 -171.025ZM1218.17 328.975L1272.89 383.696H1162.96L1108.24 328.975H1218.17ZM1162.2 384.113L1107.06 439.25H1052.09V328.971H1107.06L1162.2 384.108V384.113ZM1217.93 662.063V716.442L1108.24 606.754H1217.93V661.721L1217.76 661.892L1217.93 662.063ZM996.293 605.917L941.155 550.779L996.293 495.642H1051.26V605.921H996.293V605.917ZM940.392 550.362H830.458L885.179 495.642H995.113L940.392 550.362ZM496.288 661.475L441.567 606.754H661.777L607.056 661.475H496.288ZM551.256 496.229V605.917H441.567L551.256 496.229ZM885.421 -114.883L939.555 -60.75H885.421V-114.883ZM1107.06 -115.471L1161.78 -60.75H941.567L996.288 -115.471H1107.06ZM1217.92 50.95V161.717L1163.2 216.438V-4.60831L1217.92 -59.3292V50.6042L1217.75 50.775L1217.92 50.9458V50.95ZM997.122 494.804L1051.26 440.671V494.804H997.122ZM774.899 494.804L829.62 440.083H885.421H1050.67L995.947 494.804H774.899ZM663.198 605.917V551.783L717.332 605.917H663.198ZM717.919 606.75V660.883L663.786 606.75H717.919ZM662.365 605.917H552.085V550.95L607.223 495.813L662.361 550.95V605.917H662.365ZM663.198 50.95L717.919 -3.7708V105.917V216.438L663.198 161.717V50.95ZM773.895 -59.7458L774.066 -59.9167H940.388L995.109 -5.1958H774.062L719.34 -59.9167H773.72L773.891 -59.7458H773.895ZM1107.65 271.992V162.058L1162.37 107.337V217.271L1107.65 271.992ZM606.81 495.046L552.089 549.767V329.554L606.81 384.275V495.042V495.046ZM606.223 273.413L552.089 327.546V273.413H606.223ZM552.264 328.55L606.814 274V383.1L552.264 328.55ZM718.761 272.579V162.892L773.482 217.612V328.379L718.761 383.1V272.579ZM772.895 -5.2H718.761V-59.3333L772.895 -5.2ZM718.761 -4.36661H773.728L828.866 50.7709L773.728 105.908H718.761V-4.3708V-4.36661ZM1106.82 161.713L1052.1 216.433V50.9458L1052.27 50.775L1052.1 50.6042V-3.77499L1106.82 50.9458V161.713ZM1106.82 271.992L1052.27 217.442L1106.82 162.892V271.992ZM1051.26 438.658L996.543 383.938V162.892L1051.09 217.442L1051.26 217.612V272.579V438.654V438.658ZM829.629 51.1917H940.396L995.118 105.913H940.742L940.571 105.742L940.4 105.913H884.6H774.912L829.633 51.1917H829.629ZM995.709 271.992L940.988 217.271V107.337L995.709 162.058V271.992ZM829.875 162.058L884.596 107.337V161.713L884.425 161.883L884.596 162.054V272.992V328.375L829.875 383.096V162.05V162.058ZM884.008 106.746L829.875 160.879V106.746H884.008ZM884.596 329.558V439.246H774.907L884.596 329.558ZM885.429 106.746H939.563L885.429 160.879V106.746ZM940.151 107.333V216.433L885.6 161.883L940.151 107.333ZM941.576 106.746H995.951L996.122 106.917L996.293 106.746H1051.26V216.433L941.571 106.746H941.576ZM997.13 105.913L1051.26 51.7792V105.913H997.13ZM996.122 105.742L941.571 51.1917H1050.67L996.122 105.742ZM829.037 106.746V161.713L773.899 216.85L718.761 161.713V106.746H829.041H829.037ZM774.316 217.612L829.037 162.892V272.825L774.316 327.546V217.612ZM829.037 274V383.933L774.316 438.654V328.721L829.037 274ZM773.482 438.654L718.932 384.104L773.482 329.554V438.654ZM772.895 439.242H718.761V385.108L772.895 439.242ZM885.429 272.992V162.888L940.151 217.608V328.375L885.429 383.096V272.992ZM940.984 218.442L995.705 273.163V383.096L940.984 328.375V218.442ZM1051.26 -59.925V49.7625L941.576 -59.925H1051.26ZM1050.68 50.3542H940.742L886.021 -4.36661H995.955L1050.68 50.3542ZM884.842 -4.36661L939.563 50.3542H829.629L774.907 -4.36661H884.842ZM885.429 384.279L940.567 329.142L995.705 384.279V439.246H885.425V384.279H885.429ZM996.543 385.112L1050.68 439.246H996.543V385.112ZM1052.1 218.446L1106.23 272.579H1052.1V218.446ZM1162.38 106.154L1107.66 160.875V50.9417L1162.38 -3.77921V106.154ZM1107.24 50.1833L1052.1 -4.95419V-59.9208H1162.38V-4.95419L1107.24 50.1833ZM717.932 -5.78751L663.798 -59.9208H717.932V-5.78751ZM663.211 -59.3292L717.761 -4.7791L663.211 49.7708V-59.3292ZM607.656 495.046V385.112L662.377 439.833V549.767L607.656 495.046ZM662.377 438.658L607.656 383.938V274.004L662.377 328.725V438.658ZM608.244 273.413H717.932V383.1L608.244 273.413ZM773.732 440.079L773.903 440.25L774.074 440.079H828.45L718.761 549.767V440.079H773.728H773.732ZM1108.25 272.579L1217.94 162.892V272.579H1108.25ZM1163.21 -5.78751V-59.9208H1217.35L1163.21 -5.78751ZM940.576 -60.925L886.025 -115.475H995.126L940.576 -60.925ZM663.802 -60.7542L717.936 -114.887V-60.7542H663.802ZM662.798 -60.925L608.248 -115.475H717.349L662.798 -60.925ZM661.794 -59.9208L552.106 49.7667V-59.9208H661.794ZM662.382 -59.3333V50.6L607.66 105.321V-4.6125L662.382 -59.3333ZM607.66 106.5L662.382 51.7792V161.713L607.66 216.433V106.5ZM662.798 162.471L717.936 217.608V272.575H607.656V217.608L662.794 162.471H662.798ZM606.827 272.575H552.693L606.827 218.442V272.575ZM662.798 606.913L717.349 661.463H608.248L662.798 606.913ZM663.215 550.596V329.554L717.765 384.104L717.936 384.275V440.075V550.596L717.765 550.767L717.936 550.938V605.317L663.215 550.596ZM719.361 550.35L774.082 495.629H884.017L829.295 550.35H719.361ZM828.462 551.183L773.912 605.733L719.361 551.183H828.462ZM1052.11 605.904V496.217L1161.8 605.904H1052.11ZM1052.7 495.625H1162.63L1217.35 550.346H1107.42L1052.7 495.625ZM1052.7 494.792L1107.25 440.242L1161.8 494.792H1052.7ZM1052.11 494.204V440.071H1106.24L1052.11 494.204ZM1052.11 328.125V273.992L1106.24 328.125H1052.11ZM1217.92 -171.862H1163.79L1217.92 -225.996V-171.862ZM1217.92 -171.029V-60.75H1162.96L1107.82 -115.887L1162.96 -171.025H1217.92V-171.029ZM1107.06 -116.308H997.122L1051.84 -171.029H1161.78L1107.06 -116.308ZM718.753 -60.7542V-114.887L772.887 -60.7542H718.753ZM551.497 -171.029L606.219 -116.308H496.284L441.563 -171.029H551.497ZM496.284 -115.475H607.052L661.773 -60.7542H441.563L496.284 -115.475ZM551.251 274.004V328.383L551.081 328.554L551.251 328.725V495.046L496.53 549.767V328.721L551.251 274V274.004ZM495.697 440.671V550.604L440.975 605.325V495.392L495.697 440.671ZM440.142 605.325L385.588 550.779L440.138 496.229V605.329L440.142 605.325ZM495.526 661.888L440.388 717.025H385.417V606.746H440.384L495.522 661.883L495.526 661.888ZM496.288 662.304H606.223L551.501 717.025H441.563L496.284 662.304H496.288ZM718.757 551.783L772.891 605.917H718.757V551.783ZM885.425 607.338L939.559 661.471H885.425V607.338ZM886.013 606.75H1051.26H1107.06L1161.78 661.471H940.738L886.017 606.75H886.013ZM1052.68 662.304H1162.61L1217.34 717.025H1107.4L1052.68 662.304ZM1217.34 717.858L1162.79 772.408L1108.24 717.858H1217.34ZM1274.07 605.913L1273.9 605.742L1273.73 605.913H1162.96L1108.24 551.192H1329.29L1384.01 605.913H1274.07ZM1218.52 550.358L1163.79 495.638H1273.73L1328.45 550.358H1218.52ZM1273.73 494.804H1162.96L1108.24 440.083H1328.45L1273.73 494.804ZM1108.24 439.25L1162.96 384.529H1273.73L1328.45 439.25H1108.24ZM1274.91 384.529H1384.01L1329.46 439.079L1274.91 384.529ZM1274.07 383.696L1219.35 328.975H1329.29L1384.01 383.696H1274.07ZM1107.41 328.142L1052.68 273.421H1107.06L1107.24 273.592L1107.41 273.421H1273.73L1328.45 328.142H1107.41ZM1162.62 -171.858H941.571L996.288 -226.583H1217.34L1162.61 -171.862L1162.62 -171.858ZM995.109 -226.583L885.421 -116.896V-226.583H995.109ZM884.588 -116.062L884.417 -115.892L884.588 -115.721V-60.7542H774.899L884.588 -170.442V-116.062ZM829.033 -225.996V-116.062L774.312 -61.3417V-171.271L829.033 -225.996ZM773.478 -170.442V-61.3417L718.928 -115.892L773.478 -170.442ZM717.919 -226.583V-116.896L608.231 -226.583H717.919ZM607.052 -226.583L661.773 -171.862H440.73L386.004 -226.583H607.048H607.052ZM439.55 -171.862H385.417V-225.996L439.55 -171.862ZM385.417 -171.029H440.384L495.522 -115.892L440.384 -60.7542H385.417V-171.029ZM551.251 -59.3292V-5.1958H497.118L551.251 -59.3292ZM496.284 -4.3625H551.251V105.917H496.284L496.113 105.746L441.146 50.7792L496.284 -4.35831V-4.3625ZM551.251 106.75V160.883L497.118 106.75H551.251ZM496.113 106.921L550.664 161.471H441.563L496.113 106.921ZM386.004 217.029L440.725 162.308H550.66L495.938 217.029H386.004ZM551.251 162.896V272.583H441.563L551.251 162.896ZM495.697 273.417V328.383L440.559 383.521L385.417 328.383V273.417H495.697ZM385.417 329.562L440.138 384.283V495.05L385.417 549.771V329.558V329.562ZM439.55 605.917H385.417V551.783L439.55 605.917ZM385.417 717.862H439.55L385.417 771.996V717.862ZM440.73 717.862H661.773L607.052 772.583H386.004L440.725 717.862H440.73ZM608.231 772.583L717.919 662.896V772.583H608.231ZM773.895 716.854L718.928 661.888L718.757 661.717V606.75H773.724L773.895 606.921L774.066 606.75H829.033V661.717L773.895 716.854ZM829.866 606.75H884L829.866 660.883V606.75ZM885.421 662.304H940.388L995.526 717.442L940.388 772.579H885.421V662.3V662.304ZM941.567 772.583L996.288 717.862H1107.06L1161.78 772.583H941.563H941.567ZM1163.79 772.583L1217.92 718.45V772.583H1163.79ZM1218.76 606.75H1272.89L1218.76 660.883V606.75ZM1218.93 661.888L1273.48 607.338V716.438L1218.93 661.888ZM1329.03 771.992L1274.31 717.271V607.338L1329.03 662.058V771.992ZM1384.59 716.438L1274.9 606.75H1384.59V716.438ZM1384.59 605.329L1330.45 551.196H1384.59V605.329ZM1329.62 550.362L1274.48 495.225L1329.62 440.088H1384.59V550.367H1329.62V550.362ZM1384.59 439.25H1330.45L1384.59 385.117V439.25ZM1274.9 273.417H1384.59V383.104L1274.9 273.417ZM1218.75 271.992V217.858H1272.89L1218.75 271.992ZM1273.72 217.025H1218.75V106.746H1273.72L1273.89 106.917L1328.86 161.883L1273.72 217.021V217.025ZM1218.75 105.913V51.7792L1272.89 105.913H1218.75ZM1273.89 105.742L1219.34 51.1917H1328.44L1273.89 105.742ZM1384 -4.3625L1329.27 50.3583H1219.34L1274.06 -4.3625H1384ZM1218.75 49.7708V-59.9167H1328.44L1218.75 49.7708Z" fill="url(#paint0_linear_37_1359)" fill-opacity="0.4"/>
<path d="M1384.59 -227V-61.3375L1329.87 -116.058V-227H1328.87L1329.04 -226.829V-116.896L1274.32 -171.617V-227H1273.48V-171.617L1218.76 -116.896V-227H884.592V-171.617L829.87 -116.896V-227H828.866L774.316 -172.45V-227H773.482V-171.617L718.761 -116.896V-227H385V-59.9167H550.664L495.943 -5.1958H385V-4.1917L385.171 -4.3625H495.105L440.384 50.3583H385V51.1917H440.384L495.105 105.913H385V106.746H495.105L440.384 161.467H385V162.3H439.55L385 216.854V217.858H495.105L440.384 272.579H385V772.996H718.753V662.892L773.474 717.613V772.996H774.307V717.613L829.029 662.892V772.825L828.858 772.996H829.862V662.058L884.583 607.338V773H1218.75V717.617L1218.92 717.446L1218.75 717.275V662.896L1273.47 717.617V773H1274.31V718.45L1328.86 773H1329.86V662.896L1384.58 717.617V773H1385V272.583H1219.34L1274.06 217.863H1385V216.858L1384.83 217.029H1274.89L1329.61 162.308H1385V161.475H1329.61L1274.89 106.754H1385V105.921H1274.89L1329.61 51.2H1385V50.3667H1330.45L1385 -4.1833V-5.1875H1274.89L1329.61 -59.9083H1385V-227H1384.58H1384.59ZM1273.89 -170.854L1329.03 -115.717V-60.75H1218.75V-115.717L1273.89 -170.854ZM1329.87 -114.883L1384 -60.75H1329.87V-114.883ZM996.288 717.029L941.567 662.308H1051.5L1106.22 717.029H996.288ZM774.899 605.917L829.62 551.196H940.388L995.109 605.917H774.899ZM662.607 717.029H552.672L607.394 662.308H717.328L662.607 717.029ZM440.971 384.283L495.693 329.562V439.496L440.971 494.217V384.283ZM550.66 273.417L496.526 327.55V273.417H550.66ZM552.085 161.717V50.95L606.806 -3.7708V217.275L552.085 271.996V162.063L552.256 161.892L552.085 161.721V161.717ZM717.332 -116.304H607.398L552.676 -171.025H662.611L717.332 -116.304ZM940.734 -171.025H1050.67L995.947 -116.304H886.013L940.734 -171.025ZM1218.17 328.975L1272.89 383.696H1162.96L1108.24 328.975H1218.17ZM1162.2 384.113L1107.06 439.25H1052.09V328.971H1107.06L1162.2 384.108V384.113ZM1217.93 662.063V716.442L1108.24 606.754H1217.93V661.721L1217.76 661.892L1217.93 662.063ZM996.293 605.917L941.155 550.779L996.293 495.642H1051.26V605.921H996.293V605.917ZM940.392 550.362H830.458L885.179 495.642H995.113L940.392 550.362ZM496.288 661.475L441.567 606.754H661.777L607.056 661.475H496.288ZM551.256 496.229V605.917H441.567L551.256 496.229ZM885.421 -114.883L939.555 -60.75H885.421V-114.883ZM1107.06 -115.471L1161.78 -60.75H941.567L996.288 -115.471H1107.06ZM1217.92 50.95V161.717L1163.2 216.438V-4.60831L1217.92 -59.3292V50.6042L1217.75 50.775L1217.92 50.9458V50.95ZM997.122 494.804L1051.26 440.671V494.804H997.122ZM774.899 494.804L829.62 440.083H885.421H1050.67L995.947 494.804H774.899ZM663.198 605.917V551.783L717.332 605.917H663.198ZM717.919 606.75V660.883L663.786 606.75H717.919ZM662.365 605.917H552.085V550.95L607.223 495.813L662.361 550.95V605.917H662.365ZM663.198 50.95L717.919 -3.7708V105.917V216.438L663.198 161.717V50.95ZM773.895 -59.7458L774.066 -59.9167H940.388L995.109 -5.1958H774.062L719.34 -59.9167H773.72L773.891 -59.7458H773.895ZM1107.65 271.992V162.058L1162.37 107.337V217.271L1107.65 271.992ZM606.81 495.046L552.089 549.767V329.554L606.81 384.275V495.042V495.046ZM606.223 273.413L552.089 327.546V273.413H606.223ZM552.264 328.55L606.814 274V383.1L552.264 328.55ZM718.761 272.579V162.892L773.482 217.612V328.379L718.761 383.1V272.579ZM772.895 -5.2H718.761V-59.3333L772.895 -5.2ZM718.761 -4.36661H773.728L828.866 50.7709L773.728 105.908H718.761V-4.3708V-4.36661ZM1106.82 161.713L1052.1 216.433V50.9458L1052.27 50.775L1052.1 50.6042V-3.77499L1106.82 50.9458V161.713ZM1106.82 271.992L1052.27 217.442L1106.82 162.892V271.992ZM1051.26 438.658L996.543 383.938V162.892L1051.09 217.442L1051.26 217.612V272.579V438.654V438.658ZM829.629 51.1917H940.396L995.118 105.913H940.742L940.571 105.742L940.4 105.913H884.6H774.912L829.633 51.1917H829.629ZM995.709 271.992L940.988 217.271V107.337L995.709 162.058V271.992ZM829.875 162.058L884.596 107.337V161.713L884.425 161.883L884.596 162.054V272.992V328.375L829.875 383.096V162.05V162.058ZM884.008 106.746L829.875 160.879V106.746H884.008ZM884.596 329.558V439.246H774.907L884.596 329.558ZM885.429 106.746H939.563L885.429 160.879V106.746ZM940.151 107.333V216.433L885.6 161.883L940.151 107.333ZM941.576 106.746H995.951L996.122 106.917L996.293 106.746H1051.26V216.433L941.571 106.746H941.576ZM997.13 105.913L1051.26 51.7792V105.913H997.13ZM996.122 105.742L941.571 51.1917H1050.67L996.122 105.742ZM829.037 106.746V161.713L773.899 216.85L718.761 161.713V106.746H829.041H829.037ZM774.316 217.612L829.037 162.892V272.825L774.316 327.546V217.612ZM829.037 274V383.933L774.316 438.654V328.721L829.037 274ZM773.482 438.654L718.932 384.104L773.482 329.554V438.654ZM772.895 439.242H718.761V385.108L772.895 439.242ZM885.429 272.992V162.888L940.151 217.608V328.375L885.429 383.096V272.992ZM940.984 218.442L995.705 273.163V383.096L940.984 328.375V218.442ZM1051.26 -59.925V49.7625L941.576 -59.925H1051.26ZM1050.68 50.3542H940.742L886.021 -4.36661H995.955L1050.68 50.3542ZM884.842 -4.36661L939.563 50.3542H829.629L774.907 -4.36661H884.842ZM885.429 384.279L940.567 329.142L995.705 384.279V439.246H885.425V384.279H885.429ZM996.543 385.112L1050.68 439.246H996.543V385.112ZM1052.1 218.446L1106.23 272.579H1052.1V218.446ZM1162.38 106.154L1107.66 160.875V50.9417L1162.38 -3.77921V106.154ZM1107.24 50.1833L1052.1 -4.95419V-59.9208H1162.38V-4.95419L1107.24 50.1833ZM717.932 -5.78751L663.798 -59.9208H717.932V-5.78751ZM663.211 -59.3292L717.761 -4.7791L663.211 49.7708V-59.3292ZM607.656 495.046V385.112L662.377 439.833V549.767L607.656 495.046ZM662.377 438.658L607.656 383.938V274.004L662.377 328.725V438.658ZM608.244 273.413H717.932V383.1L608.244 273.413ZM773.732 440.079L773.903 440.25L774.074 440.079H828.45L718.761 549.767V440.079H773.728H773.732ZM1108.25 272.579L1217.94 162.892V272.579H1108.25ZM1163.21 -5.78751V-59.9208H1217.35L1163.21 -5.78751ZM940.576 -60.925L886.025 -115.475H995.126L940.576 -60.925ZM663.802 -60.7542L717.936 -114.887V-60.7542H663.802ZM662.798 -60.925L608.248 -115.475H717.349L662.798 -60.925ZM661.794 -59.9208L552.106 49.7667V-59.9208H661.794ZM662.382 -59.3333V50.6L607.66 105.321V-4.6125L662.382 -59.3333ZM607.66 106.5L662.382 51.7792V161.713L607.66 216.433V106.5ZM662.798 162.471L717.936 217.608V272.575H607.656V217.608L662.794 162.471H662.798ZM606.827 272.575H552.693L606.827 218.442V272.575ZM662.798 606.913L717.349 661.463H608.248L662.798 606.913ZM663.215 550.596V329.554L717.765 384.104L717.936 384.275V440.075V550.596L717.765 550.767L717.936 550.938V605.317L663.215 550.596ZM719.361 550.35L774.082 495.629H884.017L829.295 550.35H719.361ZM828.462 551.183L773.912 605.733L719.361 551.183H828.462ZM1052.11 605.904V496.217L1161.8 605.904H1052.11ZM1052.7 495.625H1162.63L1217.35 550.346H1107.42L1052.7 495.625ZM1052.7 494.792L1107.25 440.242L1161.8 494.792H1052.7ZM1052.11 494.204V440.071H1106.24L1052.11 494.204ZM1052.11 328.125V273.992L1106.24 328.125H1052.11ZM1217.92 -171.862H1163.79L1217.92 -225.996V-171.862ZM1217.92 -171.029V-60.75H1162.96L1107.82 -115.887L1162.96 -171.025H1217.92V-171.029ZM1107.06 -116.308H997.122L1051.84 -171.029H1161.78L1107.06 -116.308ZM718.753 -60.7542V-114.887L772.887 -60.7542H718.753ZM551.497 -171.029L606.219 -116.308H496.284L441.563 -171.029H551.497ZM496.284 -115.475H607.052L661.773 -60.7542H441.563L496.284 -115.475ZM551.251 274.004V328.383L551.081 328.554L551.251 328.725V495.046L496.53 549.767V328.721L551.251 274V274.004ZM495.697 440.671V550.604L440.975 605.325V495.392L495.697 440.671ZM440.142 605.325L385.588 550.779L440.138 496.229V605.329L440.142 605.325ZM495.526 661.888L440.388 717.025H385.417V606.746H440.384L495.522 661.883L495.526 661.888ZM496.288 662.304H606.223L551.501 717.025H441.563L496.284 662.304H496.288ZM718.757 551.783L772.891 605.917H718.757V551.783ZM885.425 607.338L939.559 661.471H885.425V607.338ZM886.013 606.75H1051.26H1107.06L1161.78 661.471H940.738L886.017 606.75H886.013ZM1052.68 662.304H1162.61L1217.34 717.025H1107.4L1052.68 662.304ZM1217.34 717.858L1162.79 772.408L1108.24 717.858H1217.34ZM1274.07 605.913L1273.9 605.742L1273.73 605.913H1162.96L1108.24 551.192H1329.29L1384.01 605.913H1274.07ZM1218.52 550.358L1163.79 495.638H1273.73L1328.45 550.358H1218.52ZM1273.73 494.804H1162.96L1108.24 440.083H1328.45L1273.73 494.804ZM1108.24 439.25L1162.96 384.529H1273.73L1328.45 439.25H1108.24ZM1274.91 384.529H1384.01L1329.46 439.079L1274.91 384.529ZM1274.07 383.696L1219.35 328.975H1329.29L1384.01 383.696H1274.07ZM1107.41 328.142L1052.68 273.421H1107.06L1107.24 273.592L1107.41 273.421H1273.73L1328.45 328.142H1107.41ZM1162.62 -171.858H941.571L996.288 -226.583H1217.34L1162.61 -171.862L1162.62 -171.858ZM995.109 -226.583L885.421 -116.896V-226.583H995.109ZM884.588 -116.062L884.417 -115.892L884.588 -115.721V-60.7542H774.899L884.588 -170.442V-116.062ZM829.033 -225.996V-116.062L774.312 -61.3417V-171.271L829.033 -225.996ZM773.478 -170.442V-61.3417L718.928 -115.892L773.478 -170.442ZM717.919 -226.583V-116.896L608.231 -226.583H717.919ZM607.052 -226.583L661.773 -171.862H440.73L386.004 -226.583H607.048H607.052ZM439.55 -171.862H385.417V-225.996L439.55 -171.862ZM385.417 -171.029H440.384L495.522 -115.892L440.384 -60.7542H385.417V-171.029ZM551.251 -59.3292V-5.1958H497.118L551.251 -59.3292ZM496.284 -4.3625H551.251V105.917H496.284L496.113 105.746L441.146 50.7792L496.284 -4.35831V-4.3625ZM551.251 106.75V160.883L497.118 106.75H551.251ZM496.113 106.921L550.664 161.471H441.563L496.113 106.921ZM386.004 217.029L440.725 162.308H550.66L495.938 217.029H386.004ZM551.251 162.896V272.583H441.563L551.251 162.896ZM495.697 273.417V328.383L440.559 383.521L385.417 328.383V273.417H495.697ZM385.417 329.562L440.138 384.283V495.05L385.417 549.771V329.558V329.562ZM439.55 605.917H385.417V551.783L439.55 605.917ZM385.417 717.862H439.55L385.417 771.996V717.862ZM440.73 717.862H661.773L607.052 772.583H386.004L440.725 717.862H440.73ZM608.231 772.583L717.919 662.896V772.583H608.231ZM773.895 716.854L718.928 661.888L718.757 661.717V606.75H773.724L773.895 606.921L774.066 606.75H829.033V661.717L773.895 716.854ZM829.866 606.75H884L829.866 660.883V606.75ZM885.421 662.304H940.388L995.526 717.442L940.388 772.579H885.421V662.3V662.304ZM941.567 772.583L996.288 717.862H1107.06L1161.78 772.583H941.563H941.567ZM1163.79 772.583L1217.92 718.45V772.583H1163.79ZM1218.76 606.75H1272.89L1218.76 660.883V606.75ZM1218.93 661.888L1273.48 607.338V716.438L1218.93 661.888ZM1329.03 771.992L1274.31 717.271V607.338L1329.03 662.058V771.992ZM1384.59 716.438L1274.9 606.75H1384.59V716.438ZM1384.59 605.329L1330.45 551.196H1384.59V605.329ZM1329.62 550.362L1274.48 495.225L1329.62 440.088H1384.59V550.367H1329.62V550.362ZM1384.59 439.25H1330.45L1384.59 385.117V439.25ZM1274.9 273.417H1384.59V383.104L1274.9 273.417ZM1218.75 271.992V217.858H1272.89L1218.75 271.992ZM1273.72 217.025H1218.75V106.746H1273.72L1273.89 106.917L1328.86 161.883L1273.72 217.021V217.025ZM1218.75 105.913V51.7792L1272.89 105.913H1218.75ZM1273.89 105.742L1219.34 51.1917H1328.44L1273.89 105.742ZM1384 -4.3625L1329.27 50.3583H1219.34L1274.06 -4.3625H1384ZM1218.75 49.7708V-59.9167H1328.44L1218.75 49.7708Z" fill="url(#paint1_linear_37_1359)" fill-opacity="0.1"/>
<path d="M607.66 106.5L662.382 51.7792V161.713L607.66 216.433V106.5Z" fill="url(#paint2_linear_37_1359)" fill-opacity="0.1"/>
<path d="M885.429 272.992V162.888L940.151 217.608V328.375L885.429 383.096V272.992Z" fill="url(#paint3_linear_37_1359)" fill-opacity="0.1"/>
<path d="M941.576 106.746H995.951L996.122 106.917L996.293 106.746H1051.26V216.433L941.571 106.746H941.576Z" fill="url(#paint4_linear_37_1359)" fill-opacity="0.1"/>
<path d="M884.842 -4.36661L939.563 50.3542H829.629L774.907 -4.36661H884.842Z" fill="url(#paint5_linear_37_1359)" fill-opacity="0.1"/>
<path d="M1107.65 271.992V162.058L1162.37 107.337V217.271L1107.65 271.992Z" fill="url(#paint6_linear_37_1359)" fill-opacity="0.1"/>
<path d="M940.392 550.362H830.458L885.179 495.642H995.113L940.392 550.362Z" fill="url(#paint7_linear_37_1359)" fill-opacity="0.1"/>
<path d="M662.361 605.917H552.085V550.95L607.223 495.813L662.361 550.95V605.917Z" fill="url(#paint8_linear_37_1359)" fill-opacity="0.1"/>
<path d="M663.215 550.596V329.554L717.765 384.104L717.936 384.275V440.075V550.596L717.765 550.767L717.936 550.938V605.317L663.215 550.596Z" fill="url(#paint9_linear_37_1359)" fill-opacity="0.1"/>
<path d="M495.697 273.417V328.383L440.559 383.521L385.417 328.383V273.417H495.697Z" fill="url(#paint10_linear_37_1359)" fill-opacity="0.1"/>
<path d="M386.004 217.029L440.725 162.308H550.66L495.938 217.029H386.004Z" fill="url(#paint11_linear_37_1359)" fill-opacity="0.1"/>
<path d="M496.284 -4.3625H551.251V105.917H496.284L496.113 105.746L441.146 50.7792L496.284 -4.3583V-4.3625Z" fill="url(#paint12_linear_37_1359)" fill-opacity="0.1"/>
<path d="M997.13 105.913L1051.26 51.7792V105.913H997.13Z" fill="url(#paint13_linear_37_1359)" fill-opacity="0.1"/>
<path d="M1107.24 50.1833L1052.1 -4.95421V-59.9208H1162.38V-4.95421L1107.24 50.1833Z" fill="url(#paint14_linear_37_1359)" fill-opacity="0.1"/>
<path d="M1052.7 495.625H1162.63L1217.35 550.346H1107.42L1052.7 495.625Z" fill="url(#paint15_linear_37_1359)" fill-opacity="0.1"/>
<path d="M1108.24 439.25L1162.96 384.529H1273.73L1328.45 439.25H1108.24Z" fill="url(#paint16_linear_37_1359)" fill-opacity="0.1"/>
<path d="M1107.41 328.142L1052.68 273.421H1107.06L1107.24 273.592L1107.41 273.421H1273.73L1328.45 328.142H1107.41Z" fill="url(#paint17_linear_37_1359)" fill-opacity="0.1"/>
</g>
</g>
</g>
<defs>
<linearGradient id="paint0_linear_37_1359" x1="385" y1="273.87" x2="1385" y2="273.87" gradientUnits="userSpaceOnUse">
<stop stop-color="white" stop-opacity="0.05"/>
<stop offset="1" stop-color="white"/>
</linearGradient>
<linearGradient id="paint1_linear_37_1359" x1="385" y1="273.87" x2="1385" y2="273.87" gradientUnits="userSpaceOnUse">
<stop stop-color="white" stop-opacity="0.05"/>
<stop offset="1" stop-color="white"/>
</linearGradient>
<linearGradient id="paint2_linear_37_1359" x1="385" y1="273.87" x2="1385" y2="273.87" gradientUnits="userSpaceOnUse">
<stop stop-color="white" stop-opacity="0.05"/>
<stop offset="1" stop-color="white"/>
</linearGradient>
<linearGradient id="paint3_linear_37_1359" x1="385" y1="273.87" x2="1385" y2="273.87" gradientUnits="userSpaceOnUse">
<stop stop-color="white" stop-opacity="0.05"/>
<stop offset="1" stop-color="white"/>
</linearGradient>
<linearGradient id="paint4_linear_37_1359" x1="385" y1="273.87" x2="1385" y2="273.87" gradientUnits="userSpaceOnUse">
<stop stop-color="white" stop-opacity="0.05"/>
<stop offset="1" stop-color="white"/>
</linearGradient>
<linearGradient id="paint5_linear_37_1359" x1="385" y1="273.87" x2="1385" y2="273.87" gradientUnits="userSpaceOnUse">
<stop stop-color="white" stop-opacity="0.05"/>
<stop offset="1" stop-color="white"/>
</linearGradient>
<linearGradient id="paint6_linear_37_1359" x1="385" y1="273.87" x2="1385" y2="273.87" gradientUnits="userSpaceOnUse">
<stop stop-color="white" stop-opacity="0.05"/>
<stop offset="1" stop-color="white"/>
</linearGradient>
<linearGradient id="paint7_linear_37_1359" x1="385" y1="273.87" x2="1385" y2="273.87" gradientUnits="userSpaceOnUse">
<stop stop-color="white" stop-opacity="0.05"/>
<stop offset="1" stop-color="white"/>
</linearGradient>
<linearGradient id="paint8_linear_37_1359" x1="385" y1="273.87" x2="1385" y2="273.87" gradientUnits="userSpaceOnUse">
<stop stop-color="white" stop-opacity="0.05"/>
<stop offset="1" stop-color="white"/>
</linearGradient>
<linearGradient id="paint9_linear_37_1359" x1="385" y1="273.87" x2="1385" y2="273.87" gradientUnits="userSpaceOnUse">
<stop stop-color="white" stop-opacity="0.05"/>
<stop offset="1" stop-color="white"/>
</linearGradient>
<linearGradient id="paint10_linear_37_1359" x1="385" y1="273.87" x2="1385" y2="273.87" gradientUnits="userSpaceOnUse">
<stop stop-color="white" stop-opacity="0.05"/>
<stop offset="1" stop-color="white"/>
</linearGradient>
<linearGradient id="paint11_linear_37_1359" x1="385" y1="273.87" x2="1385" y2="273.87" gradientUnits="userSpaceOnUse">
<stop stop-color="white" stop-opacity="0.05"/>
<stop offset="1" stop-color="white"/>
</linearGradient>
<linearGradient id="paint12_linear_37_1359" x1="385" y1="273.87" x2="1385" y2="273.87" gradientUnits="userSpaceOnUse">
<stop stop-color="white" stop-opacity="0.05"/>
<stop offset="1" stop-color="white"/>
</linearGradient>
<linearGradient id="paint13_linear_37_1359" x1="385" y1="273.87" x2="1385" y2="273.87" gradientUnits="userSpaceOnUse">
<stop stop-color="white" stop-opacity="0.05"/>
<stop offset="1" stop-color="white"/>
</linearGradient>
<linearGradient id="paint14_linear_37_1359" x1="385" y1="273.87" x2="1385" y2="273.87" gradientUnits="userSpaceOnUse">
<stop stop-color="white" stop-opacity="0.05"/>
<stop offset="1" stop-color="white"/>
</linearGradient>
<linearGradient id="paint15_linear_37_1359" x1="385" y1="273.87" x2="1385" y2="273.87" gradientUnits="userSpaceOnUse">
<stop stop-color="white" stop-opacity="0.05"/>
<stop offset="1" stop-color="white"/>
</linearGradient>
<linearGradient id="paint16_linear_37_1359" x1="385" y1="273.87" x2="1385" y2="273.87" gradientUnits="userSpaceOnUse">
<stop stop-color="white" stop-opacity="0.05"/>
<stop offset="1" stop-color="white"/>
</linearGradient>
<linearGradient id="paint17_linear_37_1359" x1="385" y1="273.87" x2="1385" y2="273.87" gradientUnits="userSpaceOnUse">
<stop stop-color="white" stop-opacity="0.05"/>
<stop offset="1" stop-color="white"/>
</linearGradient>
<clipPath id="clip0_37_1359">
<rect width="1200" height="600" fill="white" transform="translate(0 -25)"/>
</clipPath>
</defs>
</svg>
